<svg xmlns="http://www.w3.org/2000/svg" viewBox="0 0 100 100">
  <!-- Red background - matches header's bg-red-600 -->
  <rect width="100" height="100" rx="20" fill="#dc2626"/>
  
  <!-- Inukshuk - exact same as header (App.tsx), scaled to fill -->
  <g transform="scale(4.167)" fill="white">
    <rect x="10" y="2" width="4" height="3" rx="0.5" />
    <path d="M4 6h16a1 1 0 0 1 1 1v2a1 1 0 0 1-1 1H4a1 1 0 0 1-1-1V7a1 1 0 0 1 1-1z" />
    <rect x="9" y="10" width="6" height="4" rx="0.5" />
    <path d="M5 14h14a1 1 0 0 1 1 1v2a1 1 0 0 1-1 1H5a1 1 0 0 1-1-1v-2a1 1 0 0 1 1-1z" />
    <rect x="7" y="18" width="3" height="4" rx="0.5" />
    <rect x="14" y="18" width="3" height="4" rx="0.5" />
  </g>
</svg>
