<svg viewBox="0 0 100 100" xmlns="http://www.w3.org/2000/svg">
  <rect width="100" height="100" fill="#dc2626" rx="20"/>
  <!-- Inukshuk Icon in White -->
  <g transform="translate(25, 20)" fill="#ffffff">
    <!-- Head -->
    <rect x="18" y="4" width="14" height="10" rx="2" />
    <!-- Arms -->
    <path d="M6 16h38a3 3 0 0 1 3 3v6a3 3 0 0 1-3 3H6a3 3 0 0 1-3-3v-6a3 3 0 0 1 3-3z" />
    <!-- Torso -->
    <rect x="15" y="32" width="20" height="14" rx="2" />
    <!-- Hips -->
    <path d="M8 46h34a3 3 0 0 1 3 3v6a3 3 0 0 1-3 3H8a3 3 0 0 1-3-3v-6a3 3 0 0 1 3-3z" />
    <!-- Legs -->
    <rect x="10" y="58" width="10" height="14" rx="2" />
    <rect x="30" y="58" width="10" height="14" rx="2" />
  </g>
</svg>
