<svg xmlns="http://www.w3.org/2000/svg" viewBox="0 0 320 80" width="320" height="80">
  <defs>
    <style>.brand { font-family: -apple-system, BlinkMacSystemFont, 'Segoe UI', sans-serif; font-weight: 700; font-size: 24px; }</style>
  </defs>
  
  <!-- Icon: Red square + Inukshuk (same as header) -->
  <g>
    <rect width="56" height="56" rx="12" fill="#dc2626"/>
    <g transform="translate(16, 16) scale(1.5)" fill="white">
      <rect x="10" y="2" width="4" height="3" rx="0.5" />
      <path d="M4 6h16a1 1 0 0 1 1 1v2a1 1 0 0 1-1 1H4a1 1 0 0 1-1-1V7a1 1 0 0 1 1-1z" />
      <rect x="9" y="10" width="6" height="4" rx="0.5" />
      <path d="M5 14h14a1 1 0 0 1 1 1v2a1 1 0 0 1-1 1H5a1 1 0 0 1-1-1v-2a1 1 0 0 1 1-1z" />
      <rect x="7" y="18" width="3" height="4" rx="0.5" />
      <rect x="14" y="18" width="3" height="4" rx="0.5" />
    </g>
  </g>
  
  <!-- Text: CanPay Insights -->
  <text x="72" y="42" class="brand" fill="#1e293b">CanPay</text>
  <text x="168" y="42" class="brand" font-weight="400" fill="#dc2626">Insights</text>
</svg>
